<mxfile host="app.diagrams.net" modified="2023-01-04T09:05:24.060Z" agent="5.0 (Windows NT 10.0; Win64; x64) AppleWebKit/537.36 (KHTML, like Gecko) Chrome/107.0.0.0 Safari/537.36 OPR/93.0.0.0" version="20.8.1" etag="k78LCC7yDRBSCa6ZtesU" type="github">
  <diagram id="QoxAyvX7ZY9BHbRCG-fU" name="Page-1">
    <mxGraphModel dx="1009" dy="542" grid="1" gridSize="10" guides="1" tooltips="1" connect="1" arrows="1" fold="1" page="1" pageScale="1" pageWidth="827" pageHeight="1169" math="0" shadow="0">
      <root>
        <mxCell id="0" />
        <mxCell id="1" parent="0" />
        <mxCell id="qqhG9_B1rcYjrcv3_uUs-2" value="" style="rounded=0;whiteSpace=wrap;html=1;fillColor=#0078ec;strokeColor=#FFFFFF;gradientColor=#03123d;strokeWidth=3;gradientDirection=north;" vertex="1" parent="1">
          <mxGeometry x="280" y="120" width="280" height="320" as="geometry" />
        </mxCell>
      </root>
    </mxGraphModel>
  </diagram>
</mxfile>
